<svg id="Layer_1" data-name="Layer 1" xmlns="http://www.w3.org/2000/svg" viewBox="0 0 162.33 270"><defs><style>.cls-1{fill:#fff;}.cls-2{fill:#6c6ca9;}.cls-3{fill:#230871;}.cls-4{fill:#b8b9db;}.cls-5{fill:#e43356;}</style></defs><rect class="cls-1" x="-53.58" y="54" width="270" height="162" transform="translate(216.42 53.58) rotate(90)"/><path class="cls-2" d="M31.71,26.87,30,31.47h-.77l-1.72-4.61-.06,4.69H26.7l.19-5.62h1l1.73,4.62,1.72-4.62h1l.18,5.62h-.78Z"/><path class="cls-2" d="M38.82,31.55H38l-.53-1.47H35.06l-.53,1.47h-.79l2.12-5.62h.87Zm-2.53-4.83-1,2.66h1.93Z"/><path class="cls-2" d="M40.94,31.55h-.76V25.93h1.68c1.36,0,2.07.65,2.07,1.65a1.65,1.65,0,0,1-1.27,1.62l1.52,2.35h-.91L41.9,29.32l-1,.06Zm.93-2.87c.74,0,1.29-.38,1.29-1.07s-.54-1-1.39-1h-.83v2.08Z"/><path class="cls-2" d="M45.7,31.55V25.93h.76v5.62Z"/><path class="cls-2" d="M52.92,31.55h-.78l-.53-1.47H49.17l-.53,1.47h-.8L50,25.93h.87Zm-2.53-4.83-1,2.66h1.93Z"/><path class="cls-2" d="M58.12,25.93h.75v5.68H58L55,27v4.53h-.75V25.93h.84l3,4.53Z"/><path class="cls-2" d="M65.31,31.55h-.79L64,30.08H61.55L61,31.55h-.79l2.11-5.62h.88Zm-2.53-4.83-1,2.66h1.94Z"/><path class="cls-2" d="M68.4,26.65v4.9h-.76v-4.9h-2v-.72h4.7v.72Z"/><path class="cls-2" d="M71.86,31.55V25.93h3.56v.71h-2.8v1.74H75v.71H72.62v1.75h2.8v.71Z"/><path class="cls-2" d="M77.94,28.61l2.39-2.68h1l-2.6,2.78,2.63,2.84h-1l-2.39-2.67h0v2.67h-.76V25.93h.76v2.68Z"/><path class="cls-2" d="M83,31.69a.59.59,0,0,1-.59-.59.57.57,0,0,1,.59-.56.56.56,0,0,1,.57.56A.58.58,0,0,1,83,31.69Z"/><path class="cls-2" d="M89.12,27a2.68,2.68,0,0,0-1.54-.47,2,2,0,0,0-2,2.24A2,2,0,0,0,87.6,31a2.76,2.76,0,0,0,1.59-.54l.13.76a3.4,3.4,0,0,1-1.74.47,2.73,2.73,0,0,1-2.82-2.94,2.75,2.75,0,0,1,2.82-3,3.52,3.52,0,0,1,1.78.47Z"/><path class="cls-2" d="M93.51,31.69a2.74,2.74,0,0,1-2.83-2.94,2.81,2.81,0,0,1,2.83-3,2.74,2.74,0,0,1,2.83,2.93A2.82,2.82,0,0,1,93.51,31.69Zm0-5.21a2,2,0,0,0-2,2.24,2.06,2.06,0,1,0,4.11,0A2.06,2.06,0,0,0,93.49,26.48Z"/><path class="cls-2" d="M102.92,26.87l-1.71,4.6h-.77l-1.72-4.61-.06,4.69h-.75l.19-5.62h1l1.73,4.62,1.72-4.62h1l.18,5.62H103Z"/><path class="cls-3" d="M29.84,153.12H28.5l-2-5.62h1.14L29.18,152l1.54-4.52h1.13Z"/><path class="cls-3" d="M34.4,151.37h-.64v1.74h-1.1V147.5h1.82c1.56,0,2.32.78,2.32,1.88C36.8,150.67,35.91,151.36,34.4,151.37Zm0-3h-.67v2.05l.7,0c.84,0,1.26-.38,1.26-1S35.27,148.42,34.41,148.42Z"/><path class="cls-3" d="M37.87,151.81a1,1,0,0,1,.92,1c0,.78-.7,1.36-1.42,1.79l-.47-.42c.57-.4.91-.74.91-1s-.17-.39-.73-.64A.76.76,0,0,1,37.87,151.81Z"/><path class="cls-3" d="M46.38,151.51c0,.93-.56,1.61-2.19,1.61H42V147.5h2.15c1.53,0,2.05.63,2.05,1.48a1.27,1.27,0,0,1-1,1.23A1.33,1.33,0,0,1,46.38,151.51Zm-2.26-3.13h-1v1.53h1c.7,0,1.07-.3,1.07-.78S44.76,148.38,44.12,148.38Zm0,2.33h-1v1.53h1.09c.74,0,1.1-.26,1.1-.77S44.78,150.71,44.09,150.71Z"/><path class="cls-3" d="M48.42,149v2.53c0,.62.25.81.7.81A1.35,1.35,0,0,0,50,152v-3h1.06v4.13l-1.06.14v-.61a1.9,1.9,0,0,1-1.37.63,1.26,1.26,0,0,1-1.3-1.43V149Z"/><path class="cls-3" d="M53.65,153.27a3.64,3.64,0,0,1-1.61-.39l.23-.83a3,3,0,0,0,1.41.39c.41,0,.68-.17.68-.46s-.35-.44-.84-.56c-.78-.18-1.4-.5-1.4-1.29s.66-1.29,1.65-1.29a3.65,3.65,0,0,1,1.52.33l-.24.83a3.11,3.11,0,0,0-1.3-.34c-.39,0-.62.14-.62.41s.35.42.83.54c.8.19,1.42.5,1.42,1.31S54.71,153.27,53.65,153.27Z"/><path class="cls-3" d="M56.91,148.22a.64.64,0,1,1,.65-.64A.6.6,0,0,1,56.91,148.22Zm-.53,4.9V149l1.06-.15v4.27Z"/><path class="cls-3" d="M61.41,153.12v-2.53c0-.61-.25-.82-.72-.82a1.39,1.39,0,0,0-.92.39v3H58.71V149l1.06-.14v.65a1.91,1.91,0,0,1,1.37-.66,1.27,1.27,0,0,1,1.33,1.43v2.85Z"/><path class="cls-3" d="M64.51,151.28a1.16,1.16,0,0,0,1.24,1.13,2.52,2.52,0,0,0,1.3-.38l.13.89a3.29,3.29,0,0,1-1.5.34,2.06,2.06,0,0,1-2.21-2.17,2.1,2.1,0,0,1,2.14-2.25,1.56,1.56,0,0,1,1.71,1.68,2.88,2.88,0,0,1-.09.69l-2.72,0Zm1.81-.66v-.07c0-.56-.24-.91-.79-.91a1,1,0,0,0-1,1Z"/><path class="cls-3" d="M69.62,153.27a3.68,3.68,0,0,1-1.61-.39l.24-.83a2.92,2.92,0,0,0,1.4.39c.41,0,.68-.17.68-.46s-.35-.44-.83-.56c-.79-.18-1.41-.5-1.41-1.29s.66-1.29,1.66-1.29a3.64,3.64,0,0,1,1.51.33L71,150a3.19,3.19,0,0,0-1.31-.34c-.38,0-.62.14-.62.41s.35.42.84.54c.79.19,1.41.5,1.41,1.31S70.69,153.27,69.62,153.27Z"/><path class="cls-3" d="M73.64,153.27a3.64,3.64,0,0,1-1.61-.39l.23-.83a2.92,2.92,0,0,0,1.4.39c.42,0,.69-.17.69-.46s-.35-.44-.84-.56c-.78-.18-1.4-.5-1.4-1.29s.65-1.29,1.65-1.29a3.65,3.65,0,0,1,1.52.33L75,150a3.11,3.11,0,0,0-1.3-.34c-.39,0-.63.14-.63.41s.36.42.84.54c.79.19,1.42.5,1.42,1.31S74.7,153.27,73.64,153.27Z"/><path class="cls-3" d="M80.47,153.12H78.63V147.5h1.91c1.92,0,3,1.09,3,2.77S82.47,153.12,80.47,153.12Zm0-4.7h-.75v3.78h.8a1.89,1.89,0,1,0,0-3.78Z"/><path class="cls-3" d="M85.44,151.28a1.17,1.17,0,0,0,1.25,1.13A2.46,2.46,0,0,0,88,152l.14.89a3.36,3.36,0,0,1-1.51.34,2.06,2.06,0,0,1-2.21-2.17,2.1,2.1,0,0,1,2.14-2.25,1.56,1.56,0,0,1,1.71,1.68,2.45,2.45,0,0,1-.09.69l-2.72,0Zm1.81-.66v-.07c0-.56-.24-.91-.79-.91a1,1,0,0,0-1,1Z"/><path class="cls-3" d="M91.46,153.13H90.32L88.74,149h1.13l1,3,1-3h1.14Z"/><path class="cls-3" d="M94.51,151.28a1.15,1.15,0,0,0,1.24,1.13,2.52,2.52,0,0,0,1.3-.38l.13.89a3.32,3.32,0,0,1-1.5.34,2.07,2.07,0,0,1-2.22-2.17,2.1,2.1,0,0,1,2.15-2.25,1.56,1.56,0,0,1,1.71,1.68,2.88,2.88,0,0,1-.09.69l-2.72,0Zm1.81-.66v-.07c0-.56-.25-.91-.8-.91a1,1,0,0,0-1,1Z"/><path class="cls-3" d="M98.33,153.12v-6l1.06-.14v6.15Z"/><path class="cls-3" d="M102.52,153.26a2,2,0,0,1-2.1-2.21,2.08,2.08,0,0,1,2.15-2.22,2,2,0,0,1,2.1,2.21A2.09,2.09,0,0,1,102.52,153.26Zm0-3.58c-.7,0-1.08.56-1.08,1.36s.4,1.35,1.09,1.35,1.07-.54,1.07-1.34S103.22,149.68,102.54,149.68Z"/><path class="cls-3" d="M107.92,148.84c1.1,0,1.82.89,1.82,2.17a2.11,2.11,0,0,1-2.1,2.24,3.28,3.28,0,0,1-.88-.12v2h-1.07V149l1.07-.14v.52A1.63,1.63,0,0,1,107.92,148.84Zm-1.16,3.33a1.25,1.25,0,0,0,.78.23c.71,0,1.11-.57,1.11-1.35s-.38-1.32-1-1.32a1.21,1.21,0,0,0-.85.34Z"/><path class="cls-3" d="M116,153.12V150.6c0-.61-.24-.83-.68-.83a1.34,1.34,0,0,0-.87.37v3h-1.06V150.6c0-.61-.23-.83-.67-.83a1.24,1.24,0,0,0-.87.35v3h-1.06V149l1.06-.14v.58a1.8,1.8,0,0,1,1.33-.59,1.18,1.18,0,0,1,1.13.71,2,2,0,0,1,1.48-.71,1.27,1.27,0,0,1,1.28,1.44v2.84Z"/><path class="cls-3" d="M119.07,151.28a1.15,1.15,0,0,0,1.24,1.13,2.52,2.52,0,0,0,1.3-.38l.13.89a3.29,3.29,0,0,1-1.5.34,2.07,2.07,0,0,1-2.22-2.17,2.1,2.1,0,0,1,2.15-2.25,1.56,1.56,0,0,1,1.71,1.68,2.88,2.88,0,0,1-.09.69l-2.72,0Zm1.81-.66v-.07c0-.56-.25-.91-.79-.91a1,1,0,0,0-1,1Z"/><path class="cls-3" d="M125.59,153.12v-2.53c0-.61-.24-.82-.72-.82a1.39,1.39,0,0,0-.92.39v3h-1.06V149l1.06-.14v.65a1.93,1.93,0,0,1,1.37-.66,1.28,1.28,0,0,1,1.34,1.43v2.85Z"/><path class="cls-3" d="M129.36,153.26c-.92,0-1.41-.41-1.37-1.41l.06-1.95-.65-.07,0-.68.65-.2V148h1l0,1h1.17l0,.87H129l-.06,1.92c0,.39.19.57.55.57a2.09,2.09,0,0,0,.65-.13l.15.87A3.08,3.08,0,0,1,129.36,153.26Z"/><path class="cls-3" d="M28,169.68a2.81,2.81,0,0,1-1.44-.39l.19-.67A2.43,2.43,0,0,0,28,169c.47,0,.82-.22.82-.59s-.48-.55-1-.68-1.22-.45-1.22-1.21a1.32,1.32,0,0,1,1.47-1.25,3.07,3.07,0,0,1,1.34.31l-.19.67a2.75,2.75,0,0,0-1.18-.3c-.44,0-.73.17-.73.51s.44.53.95.66,1.25.45,1.25,1.24A1.38,1.38,0,0,1,28,169.68Z"/><path class="cls-3" d="M33.23,169.54V167c0-.72-.27-1-.81-1a1.68,1.68,0,0,0-1.12.45v3.1h-.74v-6.07l.74-.12v2.53a1.93,1.93,0,0,1,1.38-.6A1.25,1.25,0,0,1,34,166.7v2.84Z"/><path class="cls-3" d="M37.38,169.1a1.44,1.44,0,0,1-1.13.57,1.21,1.21,0,0,1-1.32-1.18c0-.74.53-1.38,2.46-1.47v-.12c0-.67-.26-.94-.93-.94a2.63,2.63,0,0,0-1.33.46l-.14-.66a2.81,2.81,0,0,1,1.54-.48c1.12,0,1.62.48,1.6,1.6v1.73c0,.34,0,.41.4.41l0,.62c-.67.05-1-.18-1.07-.54Zm0-1.61c-1.22.16-1.68.41-1.68.91a.65.65,0,0,0,.73.64,1.31,1.31,0,0,0,1-.44Z"/><path class="cls-3" d="M42.07,169.54V167c0-.72-.27-1-.86-1a1.7,1.7,0,0,0-1.08.45v3.1H39.4V165.4l.73-.12v.62a2,2,0,0,1,1.35-.62,1.27,1.27,0,0,1,1.33,1.42v2.84Z"/><path class="cls-3" d="M46.79,169.54V167c0-.72-.27-1-.86-1a1.68,1.68,0,0,0-1.08.45v3.1h-.74V165.4l.74-.12v.62a2,2,0,0,1,1.34-.62,1.26,1.26,0,0,1,1.33,1.42v2.84Z"/><path class="cls-3" d="M50.55,169.67a2,2,0,0,1-2-2.19,2,2,0,0,1,2-2.21,2,2,0,0,1,2,2.21A2,2,0,0,1,50.55,169.67Zm0-3.73c-.82,0-1.27.64-1.27,1.53s.47,1.54,1.28,1.54,1.27-.63,1.27-1.52S51.37,165.94,50.56,165.94Z"/><path class="cls-3" d="M56.32,169.54V167c0-.72-.27-1-.86-1a1.68,1.68,0,0,0-1.08.45v3.1h-.74V165.4l.74-.12v.62a2,2,0,0,1,1.34-.62,1.26,1.26,0,0,1,1.33,1.42v2.84Z"/><path class="cls-3" d="M63.19,168.65c.7,0,1.29-.65,1.29-1.87a2.76,2.76,0,0,0-2.92-2.63,3.18,3.18,0,0,0-3.11,3.2,2.84,2.84,0,0,0,2.85,3,3.79,3.79,0,0,0,1.11-.18l.1.33a3.65,3.65,0,0,1-1.23.21,3.2,3.2,0,0,1-3.23-3.31,3.54,3.54,0,0,1,3.51-3.57,3.09,3.09,0,0,1,3.32,3c0,1.52-.87,2.36-1.79,2.36a1,1,0,0,1-1-.66A1.43,1.43,0,0,1,61,169a1.37,1.37,0,0,1-1.31-1.48,2,2,0,0,1,1.91-2,2.17,2.17,0,0,1,.85.2l.63-.2-.44,2.18C62.53,168.29,62.69,168.65,63.19,168.65Zm-.87-2.3a1.11,1.11,0,0,0-.79-.33,1.37,1.37,0,0,0-1.22,1.45.91.91,0,0,0,.88,1,1.15,1.15,0,0,0,.77-.33Z"/><path class="cls-3" d="M71,169.54V167c0-.72-.26-1-.79-1a1.48,1.48,0,0,0-1,.47v3.09h-.74V167c0-.72-.26-1-.79-1a1.5,1.5,0,0,0-1,.43v3.13h-.74V165.4l.74-.12v.57a1.86,1.86,0,0,1,1.32-.57A1.13,1.13,0,0,1,69,166a2.05,2.05,0,0,1,1.49-.68c.76,0,1.25.53,1.25,1.44v2.82Z"/><path class="cls-3" d="M75.17,169.1a1.44,1.44,0,0,1-1.13.57,1.21,1.21,0,0,1-1.32-1.18c0-.74.53-1.38,2.46-1.47v-.12c0-.67-.26-.94-.93-.94a2.63,2.63,0,0,0-1.33.46l-.14-.66a2.81,2.81,0,0,1,1.54-.48c1.12,0,1.62.48,1.6,1.6v1.73c0,.34,0,.41.4.41l0,.62c-.67.05-1-.18-1.07-.54Zm0-1.61c-1.22.16-1.68.41-1.68.91a.65.65,0,0,0,.73.64,1.31,1.31,0,0,0,1-.44Z"/><path class="cls-3" d="M77.92,169.54h-.73V165.4l.73-.12V166a1.31,1.31,0,0,1,1.16-.73,1.44,1.44,0,0,1,.77.21l-.19.69A1.21,1.21,0,0,0,79,166c-.39,0-.77.29-1.08.86Z"/><path class="cls-3" d="M81.05,164.5a.53.53,0,1,1,.48-.53A.48.48,0,0,1,81.05,164.5Zm-.37,5V165.4l.74-.12v4.26Z"/><path class="cls-3" d="M84.86,169.1a1.44,1.44,0,0,1-1.13.57,1.21,1.21,0,0,1-1.31-1.18c0-.74.53-1.38,2.45-1.47v-.12c0-.67-.26-.94-.92-.94a2.63,2.63,0,0,0-1.34.46l-.14-.66a2.82,2.82,0,0,1,1.55-.48c1.11,0,1.61.48,1.59,1.6v1.73c0,.34,0,.41.41.41l0,.62c-.66.05-1-.18-1.07-.54Zm0-1.61c-1.22.16-1.67.41-1.67.91a.65.65,0,0,0,.73.64,1.29,1.29,0,0,0,.94-.44Z"/><path class="cls-3" d="M89.55,169.54V167c0-.72-.27-1-.85-1a1.68,1.68,0,0,0-1.08.45v3.1h-.74V165.4l.74-.12v.62a2,2,0,0,1,1.34-.62,1.26,1.26,0,0,1,1.33,1.42v2.84Z"/><path class="cls-3" d="M93.7,169.1a1.44,1.44,0,0,1-1.13.57,1.21,1.21,0,0,1-1.32-1.18c0-.74.53-1.38,2.46-1.47v-.12c0-.67-.26-.94-.93-.94a2.63,2.63,0,0,0-1.33.46l-.14-.66a2.82,2.82,0,0,1,1.55-.48c1.11,0,1.61.48,1.59,1.6v1.73c0,.34,0,.41.4.41l0,.62c-.67.05-1-.18-1.07-.54Zm0-1.61c-1.22.16-1.67.41-1.67.91a.65.65,0,0,0,.73.64,1.31,1.31,0,0,0,.94-.44Z"/><path class="cls-3" d="M97,169.67c-.8,0-1.22-.38-1.2-1.28l.07-2.31-.69,0,0-.47.68-.21,0-.89h.71l0,.95h1.29l0,.66H96.53l-.07,2.33c0,.39.18.59.54.59a2.14,2.14,0,0,0,.75-.16s.14.65.14.65A2.56,2.56,0,0,1,97,169.67Z"/><path class="cls-3" d="M99.26,167.6a1.34,1.34,0,0,0,1.36,1.39,2.38,2.38,0,0,0,1.24-.34l.13.68a2.65,2.65,0,0,1-1.39.34,2,2,0,0,1-2.08-2.15,2.07,2.07,0,0,1,2-2.24,1.47,1.47,0,0,1,1.58,1.61,2.63,2.63,0,0,1-.09.66l-2.78,0Zm2.16-.59V167c0-.62-.29-1-.94-1A1.2,1.2,0,0,0,99.3,167Z"/><path class="cls-3" d="M103.91,167.5v2h-.74v-6.07l.74-.12v4h0l1.7-1.89h.93l-1.89,2,1.9,2.17h-.94l-1.7-2Z"/><path class="cls-3" d="M107.71,169.67a.58.58,0,0,1-.59-.58.57.57,0,0,1,.59-.57.56.56,0,0,1,.56.57A.57.57,0,0,1,107.71,169.67Z"/><path class="cls-3" d="M111.13,169.67a2,2,0,0,1-2-2.19,2,2,0,0,1,2.08-2.2,2.46,2.46,0,0,1,1.33.35l-.19.68a1.94,1.94,0,0,0-1.14-.35c-.85,0-1.32.58-1.32,1.51s.53,1.52,1.3,1.52a2.18,2.18,0,0,0,1.19-.34l.13.68A2.52,2.52,0,0,1,111.13,169.67Z"/><path class="cls-3" d="M115.22,169.67a2,2,0,0,1-2-2.19,2,2,0,0,1,2-2.21,2,2,0,0,1,2,2.21A2,2,0,0,1,115.22,169.67Zm0-3.73c-.82,0-1.27.64-1.27,1.53s.48,1.54,1.29,1.54,1.27-.63,1.27-1.52S116,165.94,115.23,165.94Z"/><path class="cls-3" d="M123.47,169.54V167c0-.72-.26-1-.8-1a1.48,1.48,0,0,0-1,.47v3.09h-.74V167c0-.72-.26-1-.79-1a1.5,1.5,0,0,0-1,.43v3.13h-.73V165.4l.73-.12v.57a1.87,1.87,0,0,1,1.33-.57,1.12,1.12,0,0,1,1.08.68,2.07,2.07,0,0,1,1.49-.68c.76,0,1.25.53,1.25,1.44v2.82Z"/><path class="cls-3" d="M27.31,184.22l-.22-.71a3.1,3.1,0,0,0,2.51-2.1h0a2,2,0,0,1-1.43.56,1.66,1.66,0,0,1-1.65-1.75,1.81,1.81,0,0,1,1.92-1.87,2.07,2.07,0,0,1,2,2.34A3.65,3.65,0,0,1,27.31,184.22Zm1.08-5.2a1.08,1.08,0,0,0-1.14,1.15,1.06,1.06,0,0,0,1.1,1.13,1.87,1.87,0,0,0,1.22-.48,1.4,1.4,0,0,0,.05-.38A1.3,1.3,0,0,0,28.39,179Z"/><path class="cls-3" d="M32.3,179.26l-1,.34,0-.68,1.8-.59v4.39H32.3Z"/><path class="cls-3" d="M34.15,179.19l0-.73h3.74v.64l-2.54,5.28h-.76l2.5-5.19Z"/><path class="cls-3" d="M38.82,182.86a.58.58,0,0,1-.59-.59.57.57,0,0,1,.59-.56.55.55,0,0,1,.56.56A.57.57,0,0,1,38.82,182.86Z"/><path class="cls-3" d="M43.52,182.61a1.85,1.85,0,0,1-2.07,1.8,3.15,3.15,0,0,1-1.53-.35l.14-.69a2.6,2.6,0,0,0,1.39.36c.76,0,1.29-.36,1.29-1.06s-.51-.92-1.22-.95a4.16,4.16,0,0,0-.83.07v-.63c.93-.22,1.82-.59,1.82-1.29,0-.54-.38-.84-1-.84a2.24,2.24,0,0,0-1.3.52l-.26-.63a2.67,2.67,0,0,1,1.64-.58c1.1,0,1.75.6,1.75,1.42a1.61,1.61,0,0,1-1.13,1.43A1.46,1.46,0,0,1,43.52,182.61Z"/><path class="cls-3" d="M44.17,182.72v-.64c1.26-.93,2.41-1.64,2.41-2.34,0-.41-.32-.71-.86-.71a2.19,2.19,0,0,0-1.28.51l-.26-.63a2.58,2.58,0,0,1,1.62-.57c.92,0,1.56.52,1.56,1.31,0,1-.89,1.52-2.06,2.37h2.26v.7Z"/><path class="cls-3" d="M52.1,181.26a1.67,1.67,0,0,1-1.89,1.6c-1.27,0-1.88-.71-1.88-1.52a1.53,1.53,0,0,1,1.08-1.4,1.47,1.47,0,0,1-1-1.29,1.64,1.64,0,0,1,1.85-1.59A1.54,1.54,0,0,1,52,178.58a1.51,1.51,0,0,1-.94,1.35A1.53,1.53,0,0,1,52.1,181.26Zm-3,0c0,.58.49.95,1.17.95s1.1-.31,1.1-.85-.68-.87-1.38-1.17A1.16,1.16,0,0,0,49.08,181.25Zm2.18-2.59a.94.94,0,0,0-1-.94c-.7,0-1.07.38-1.07.85s.64.82,1.34,1.11A1.1,1.1,0,0,0,51.26,178.66Z"/><path class="cls-3" d="M53.52,182.86a.58.58,0,0,1-.58-.59.56.56,0,0,1,.58-.56.56.56,0,0,1,.57.56A.57.57,0,0,1,53.52,182.86Z"/><path class="cls-3" d="M55.64,184.22l-.23-.71a3.09,3.09,0,0,0,2.51-2.1h0a2,2,0,0,1-1.44.56,1.65,1.65,0,0,1-1.64-1.75,1.81,1.81,0,0,1,1.91-1.87,2.08,2.08,0,0,1,2,2.34A3.66,3.66,0,0,1,55.64,184.22Zm1.07-5.2a1.09,1.09,0,0,0-1.14,1.15,1.06,1.06,0,0,0,1.1,1.13,1.9,1.9,0,0,0,1.23-.48,2,2,0,0,0,0-.38A1.3,1.3,0,0,0,56.71,179Z"/><path class="cls-3" d="M62.65,177l.22.7a3.11,3.11,0,0,0-2.51,2.11h0a1.93,1.93,0,0,1,1.43-.56A1.65,1.65,0,0,1,63.46,181a1.82,1.82,0,0,1-1.92,1.88,2.08,2.08,0,0,1-2-2.34A3.65,3.65,0,0,1,62.65,177Zm-1.07,5.19A1.08,1.08,0,0,0,62.71,181a1.06,1.06,0,0,0-1.1-1.12,1.92,1.92,0,0,0-1.22.47,1.46,1.46,0,0,0,0,.38A1.3,1.3,0,0,0,61.58,182.17Z"/><path class="cls-3" d="M65.05,184.22l-.22-.71a3.12,3.12,0,0,0,2.51-2.1h0a2,2,0,0,1-1.43.56,1.66,1.66,0,0,1-1.65-1.75,1.81,1.81,0,0,1,1.92-1.87,2.07,2.07,0,0,1,2,2.34A3.66,3.66,0,0,1,65.05,184.22Zm1.07-5.2A1.08,1.08,0,0,0,65,180.17a1.06,1.06,0,0,0,1.1,1.13,1.87,1.87,0,0,0,1.22-.48,1.4,1.4,0,0,0,0-.38A1.3,1.3,0,0,0,66.12,179Z"/><path class="cls-3" d="M68.7,179.19l0-.73h3.74v.64l-2.54,5.28h-.76l2.5-5.19Z"/><rect class="cls-4" x="26.67" y="135.59" width="26.86" height="0.6"/><path class="cls-2" d="M27.67,227.14l-1,.39,0-.51,1.62-.59v4.36h-.55Z"/><path class="cls-2" d="M32.72,230.66v1.79h-.54v-1.79H29.42l-.07-.39,2.89-3.87h.48v3.73h.86l0,.53Zm-.54-3.37-2.11,2.84h2.11Z"/><path class="cls-2" d="M36.38,230.91a2.24,2.24,0,1,1,2.17-2.24A2.13,2.13,0,0,1,36.38,230.91Zm0-3.95A1.71,1.71,0,1,0,38,228.67,1.61,1.61,0,0,0,36.38,227Z"/><path class="cls-2" d="M41.64,230.91a2.24,2.24,0,1,1,2.18-2.24A2.13,2.13,0,0,1,41.64,230.91Zm0-3.95a1.71,1.71,0,1,0,1.62,1.71A1.61,1.61,0,0,0,41.64,227Z"/><path class="cls-2" d="M47.15,230.79v-5.62h3.4v.53H47.72v2h2.36v.53H47.72v2h2.83v.53Z"/><path class="cls-2" d="M53.19,230.75l-.34.89c-.37,1-.77,1.29-1.33,1.29a2,2,0,0,1-.8-.18l.17-.52a1.31,1.31,0,0,0,.63.18c.32,0,.55-.17.85-.95l.28-.73L51,226.67h.61l1.29,3.4,1.27-3.4h.59Z"/><path class="cls-2" d="M55.79,228.79a1.47,1.47,0,0,0,1.44,1.6,2.23,2.23,0,0,0,1.2-.35l.1.52a2.59,2.59,0,0,1-1.32.35,2,2,0,0,1-2-2.14,2,2,0,0,1,1.94-2.22,1.43,1.43,0,0,1,1.51,1.52,2.7,2.7,0,0,1-.09.66l-2.79,0Zm2.32-.49a1.15,1.15,0,0,0,0-.18.94.94,0,0,0-1-1.06,1.33,1.33,0,0,0-1.31,1.25Z"/><path class="cls-2" d="M64.73,229.33c0-.65-.54-.91-1.42-1.18s-1.64-.57-1.64-1.57a1.63,1.63,0,0,1,1.8-1.53,3.16,3.16,0,0,1,1.7.48L65,226a2.7,2.7,0,0,0-1.48-.47c-.84,0-1.25.45-1.25,1s.56.86,1.42,1.13,1.63.61,1.63,1.63a1.71,1.71,0,0,1-1.9,1.62,3.45,3.45,0,0,1-1.81-.52l.21-.52a2.8,2.8,0,0,0,1.62.53A1.19,1.19,0,0,0,64.73,229.33Z"/><path class="cls-2" d="M67.51,230.93c-.79,0-1.14-.43-1.11-1.3l.06-2.44-.63,0,0-.35.62-.14,0-.94H67l0,1h1.38l0,.49H67l-.06,2.47c0,.52.17.77.6.77a2,2,0,0,0,.79-.2l.1.49A2.14,2.14,0,0,1,67.51,230.93Z"/><path class="cls-2" d="M69.65,228.79a1.47,1.47,0,0,0,1.44,1.6,2.17,2.17,0,0,0,1.19-.35l.11.52a2.59,2.59,0,0,1-1.32.35,2,2,0,0,1-2-2.14A2,2,0,0,1,71,226.55a1.43,1.43,0,0,1,1.51,1.52,2.7,2.7,0,0,1-.09.66l-2.79,0ZM72,228.3a1.15,1.15,0,0,0,0-.18.94.94,0,0,0-1-1.06,1.33,1.33,0,0,0-1.31,1.25Z"/><path class="cls-2" d="M73.94,228.79a1.47,1.47,0,0,0,1.44,1.6,2.23,2.23,0,0,0,1.2-.35l.11.52a2.62,2.62,0,0,1-1.33.35,2,2,0,0,1-2-2.14,2,2,0,0,1,1.95-2.22,1.42,1.42,0,0,1,1.5,1.52,2.7,2.7,0,0,1-.09.66l-2.79,0Zm2.32-.49a1.15,1.15,0,0,0,0-.18.94.94,0,0,0-1-1.06,1.32,1.32,0,0,0-1.3,1.25Z"/><path class="cls-2" d="M79.07,230.93c-.78,0-1.13-.43-1.11-1.3l.07-2.44-.63,0,0-.35.62-.14,0-.94h.53l0,1H80l0,.49H78.56l-.07,2.47c0,.52.18.77.61.77a2,2,0,0,0,.79-.2l.1.49A2.18,2.18,0,0,1,79.07,230.93Z"/><path class="cls-2" d="M87,225.17h.56v5.68h-.62L83.7,226v4.81h-.55v-5.62h.65L87,230Z"/><path class="cls-2" d="M90.86,230.79h-.55l-1.6-5.62h.59l1.32,4.8,1.43-4.8h.68l1.46,4.8,1.26-4.8H96l-1.58,5.62h-.56l-1.51-4.95Z"/><path class="cls-2" d="M96.65,229.94a.68.68,0,0,1,.64.71,2.13,2.13,0,0,1-1.12,1.56l-.24-.25c.56-.4.79-.75.79-1.07s-.16-.36-.56-.51A.47.47,0,0,1,96.65,229.94Z"/><path class="cls-2" d="M103.17,229.33c0-.65-.54-.91-1.42-1.18s-1.64-.57-1.64-1.57a1.63,1.63,0,0,1,1.8-1.53,3.1,3.1,0,0,1,1.69.48l-.2.51a2.73,2.73,0,0,0-1.48-.47c-.85,0-1.25.45-1.25,1s.56.86,1.42,1.13,1.63.61,1.63,1.63a1.71,1.71,0,0,1-1.9,1.62,3.45,3.45,0,0,1-1.81-.52l.21-.52a2.8,2.8,0,0,0,1.62.53A1.19,1.19,0,0,0,103.17,229.33Z"/><path class="cls-2" d="M105.33,226.67v2.66c0,.72.29,1,.89,1a1.83,1.83,0,0,0,1.27-.59v-3.12h.56v4.12l-.56.12v-.67a2.09,2.09,0,0,1-1.42.67,1.25,1.25,0,0,1-1.3-1.41v-2.83Z"/><path class="cls-2" d="M109.7,225.72a.41.41,0,1,1,.38-.41A.38.38,0,0,1,109.7,225.72Zm-.28,5.07v-4.12l.56-.12v4.24Z"/><path class="cls-2" d="M112.49,230.93c-.79,0-1.14-.43-1.11-1.3l.06-2.44-.63,0,0-.35.62-.14,0-.94H112l0,1h1.38l0,.49H112l-.06,2.47c0,.52.17.77.6.77a2.1,2.1,0,0,0,.8-.2l.1.49A2.21,2.21,0,0,1,112.49,230.93Z"/><path class="cls-2" d="M114.63,228.79a1.47,1.47,0,0,0,1.44,1.6,2.23,2.23,0,0,0,1.2-.35l.1.52a2.59,2.59,0,0,1-1.32.35,2,2,0,0,1-2-2.14,2,2,0,0,1,2-2.22,1.42,1.42,0,0,1,1.5,1.52,2.7,2.7,0,0,1-.09.66l-2.79,0Zm2.32-.49a1.15,1.15,0,0,0,0-.18.94.94,0,0,0-1-1.06,1.32,1.32,0,0,0-1.3,1.25Z"/><path class="cls-2" d="M120.51,230.79v-.51c1.5-1.13,2.44-1.77,2.44-2.49a.86.86,0,0,0-1-.84,2.13,2.13,0,0,0-1.28.52l-.2-.48a2.47,2.47,0,0,1,1.53-.56,1.33,1.33,0,0,1,1.48,1.29c0,1-1,1.62-2.22,2.54h2.43v.53Z"/><path class="cls-2" d="M125.81,228.83a1.71,1.71,0,0,1,1.88,1.71,1.9,1.9,0,0,1-2,1.92,3.23,3.23,0,0,1-1.44-.37l.11-.55a2.92,2.92,0,0,0,1.35.39,1.31,1.31,0,0,0,1.38-1.36,1.25,1.25,0,0,0-1.36-1.25,2.78,2.78,0,0,0-1.07.17l-.19-.18.36-2.78h2.67l0,.54h-2.24l-.26,1.85A2.89,2.89,0,0,1,125.81,228.83Z"/><path class="cls-2" d="M130.54,230.91a2.24,2.24,0,1,1,2.18-2.24A2.13,2.13,0,0,1,130.54,230.91Zm0-3.95a1.71,1.71,0,1,0,1.62,1.71A1.61,1.61,0,0,0,130.54,227Z"/><path class="cls-2" d="M28.73,242.79h-.54l-1.61-5.62h.6l1.31,4.8,1.43-4.8h.69l1.46,4.8,1.26-4.8h.57l-1.57,5.62h-.56l-1.51-4.95Z"/><path class="cls-2" d="M36.92,242.3a1.61,1.61,0,0,1-1.21.61,1.2,1.2,0,0,1-1.31-1.14c0-.75.59-1.36,2.51-1.47v-.25a.86.86,0,0,0-1-1,2.53,2.53,0,0,0-1.35.5l-.12-.52a2.93,2.93,0,0,1,1.53-.5A1.29,1.29,0,0,1,37.46,240v2c0,.3.06.42.42.41l0,.46c-.54,0-.83-.18-.9-.58Zm0-1.62c-1.42.16-1.92.47-1.92,1a.75.75,0,0,0,.85.72,1.47,1.47,0,0,0,1.07-.54Z"/><path class="cls-2" d="M39.77,242.91a2.66,2.66,0,0,1-1.35-.37l.15-.51a2.27,2.27,0,0,0,1.22.37c.49,0,.92-.24.92-.69s-.52-.64-1-.8-1.2-.45-1.2-1.17a1.25,1.25,0,0,1,1.4-1.19,2.82,2.82,0,0,1,1.25.31l-.16.5a2.48,2.48,0,0,0-1.13-.3c-.5,0-.83.23-.83.63s.49.61,1,.77,1.21.44,1.21,1.21A1.32,1.32,0,0,1,39.77,242.91Z"/><path class="cls-2" d="M45,242.79v-2.66c0-.72-.28-1-.88-1a1.89,1.89,0,0,0-1.28.59v3.12h-.56v-6.07l.56-.11v2.6a2.16,2.16,0,0,1,1.43-.66A1.23,1.23,0,0,1,45.59,240v2.83Z"/><path class="cls-2" d="M47.21,237.72a.41.41,0,1,1,.38-.41A.38.38,0,0,1,47.21,237.72Zm-.28,5.07v-4.12l.56-.12v4.24Z"/><path class="cls-2" d="M51.59,242.79v-2.66c0-.72-.29-1-.91-1a1.86,1.86,0,0,0-1.25.59v3.12h-.56v-4.12l.56-.12v.68a2.1,2.1,0,0,1,1.4-.68A1.24,1.24,0,0,1,52.14,240v2.83Z"/><path class="cls-2" d="M53.23,242.14a.93.93,0,0,1,.68-.78,1.43,1.43,0,0,1-.67-1.26,1.53,1.53,0,0,1,1.62-1.55,2,2,0,0,1,1,.24L57,238.7l0,.56-.91-.09a1.45,1.45,0,0,1,.34.93,1.52,1.52,0,0,1-1.6,1.51,1.84,1.84,0,0,1-.62-.11c-.21.08-.46.26-.46.49s.2.42.94.42h.53c1.2,0,1.71.41,1.71,1.08,0,.91-1,1.53-2.17,1.53s-1.86-.48-1.86-1.2a1.1,1.1,0,0,1,.89-1A.73.73,0,0,1,53.23,242.14Zm.21,1.58c0,.49.53.85,1.4.85s1.55-.42,1.55-1-.43-.65-1.25-.65c-.28,0-.63,0-.86,0C53.78,243,53.44,243.37,53.44,243.72Zm1.41-2.56a1,1,0,0,0,1-1.08A1,1,0,0,0,54.83,239a1.08,1.08,0,0,0,0,2.15Z"/><path class="cls-2" d="M58.88,242.93c-.78,0-1.13-.43-1.1-1.3l.06-2.44-.63,0,0-.35.62-.14,0-.94h.54l0,1h1.38l0,.49H58.37l-.06,2.47c0,.52.17.77.6.77a2,2,0,0,0,.79-.2l.1.49A2.18,2.18,0,0,1,58.88,242.93Z"/><path class="cls-2" d="M62.45,242.91a2,2,0,0,1-2-2.17,2,2,0,0,1,2-2.19,2,2,0,0,1,2,2.17A2,2,0,0,1,62.45,242.91Zm0-3.85a1.69,1.69,0,1,0,1.45,1.68A1.49,1.49,0,0,0,62.47,239.06Z"/><path class="cls-2" d="M68.29,242.79v-2.66c0-.72-.29-1-.91-1a1.86,1.86,0,0,0-1.25.59v3.12h-.56v-4.12l.56-.12v.68a2.1,2.1,0,0,1,1.4-.68A1.25,1.25,0,0,1,68.85,240v2.83Z"/><path class="cls-2" d="M70.35,241.94a.68.68,0,0,1,.64.71,2.13,2.13,0,0,1-1.12,1.56l-.24-.25c.57-.4.79-.75.79-1.07s-.16-.36-.56-.51A.47.47,0,0,1,70.35,241.94Z"/><path class="cls-2" d="M75.6,242.79H74.11v-5.62h1.53a2.82,2.82,0,1,1,0,5.62Zm0-5.09h-.92v4.56h.93a2.28,2.28,0,1,0,0-4.56Z"/><path class="cls-2" d="M83.81,238a2.88,2.88,0,0,0-1.57-.45,2.43,2.43,0,0,0,0,4.82,2.68,2.68,0,0,0,1.57-.51l.11.57a3.18,3.18,0,0,1-1.69.46A2.66,2.66,0,0,1,79.53,240a2.69,2.69,0,0,1,2.72-2.94,3.44,3.44,0,0,1,1.74.46Z"/><path class="cls-2" d="M87,242.79v-.51c1.49-1.13,2.43-1.77,2.43-2.49a.85.85,0,0,0-.94-.84,2.11,2.11,0,0,0-1.28.52L87,239a2.45,2.45,0,0,1,1.53-.56A1.33,1.33,0,0,1,90,239.72c0,1-1,1.62-2.23,2.54H90.2v.53Z"/><path class="cls-2" d="M93.17,242.91a2.24,2.24,0,1,1,2.18-2.24A2.13,2.13,0,0,1,93.17,242.91Zm0-3.95a1.71,1.71,0,1,0,1.62,1.71A1.61,1.61,0,0,0,93.17,239Z"/><path class="cls-2" d="M98.44,242.91a2.24,2.24,0,1,1,2.18-2.24A2.13,2.13,0,0,1,98.44,242.91Zm0-3.95a1.71,1.71,0,1,0,1.62,1.71A1.6,1.6,0,0,0,98.44,239Z"/><path class="cls-2" d="M103.7,242.91a2.24,2.24,0,1,1,2.18-2.24A2.13,2.13,0,0,1,103.7,242.91Zm0-3.95a1.71,1.71,0,1,0,1.62,1.71A1.61,1.61,0,0,0,103.7,239Z"/><path class="cls-2" d="M108.08,240.83a1.71,1.71,0,0,1,1.87,1.71,1.89,1.89,0,0,1-2,1.92,3.19,3.19,0,0,1-1.44-.37l.1-.55a2.92,2.92,0,0,0,1.35.39,1.31,1.31,0,0,0,1.38-1.36,1.25,1.25,0,0,0-1.36-1.25,2.78,2.78,0,0,0-1.07.17l-.19-.18.36-2.78h2.68l0,.54h-2.24l-.26,1.85A2.92,2.92,0,0,1,108.08,240.83Z"/><path class="cls-5" d="M33.51,100.87c0-.84-.9-1.12-2.56-1.58-1.83-.5-4-1.34-4-3.84,0-2.32,1.7-3.86,4.81-3.86a9.51,9.51,0,0,1,4.68,1.1l-.62,2.62a9.29,9.29,0,0,0-4-1.1c-1.1,0-1.64.38-1.64,1.06s1.14,1.14,2.64,1.56c1.92.52,3.92,1.4,3.92,3.78s-1.84,4.06-5.12,4.06a10.28,10.28,0,0,1-4.83-1.14l.6-2.64a9.33,9.33,0,0,0,4.29,1.16C32.73,102.05,33.51,101.63,33.51,100.87Z"/><path class="cls-5" d="M44.61,104.37v-5.5c0-1.12-.5-1.48-1.28-1.48a2.66,2.66,0,0,0-1.73.7v6.28H38.52V91.15l3.08-.38v5.58a4.27,4.27,0,0,1,3.15-1.58c1.84,0,2.94,1.22,2.94,3.2v6.4Z"/><path class="cls-5" d="M54.85,103.25a3.33,3.33,0,0,1-2.69,1.42,2.69,2.69,0,0,1-2.84-2.58c0-1.76,1.32-3.18,5.51-3.3v-.18c0-1-.5-1.42-1.65-1.42a7.56,7.56,0,0,0-3.16.94l-.64-2.26a9.36,9.36,0,0,1,4.28-1.1c3.23,0,4.29,1.46,4.25,4.06l0,2.76c0,.64.12.7.76.76l-.3,2.2c-2,.26-3-.28-3.44-1.3Zm0-3c-1.91.22-2.61.58-2.61,1.4a1,1,0,0,0,1.17,1,1.9,1.9,0,0,0,1.44-.62Z"/><path class="cls-5" d="M66.13,104.37v-5.5c0-1.12-.5-1.48-1.32-1.48a2.59,2.59,0,0,0-1.69.7v6.28H60V95.23l3.08-.38v1.52a4.25,4.25,0,0,1,3.13-1.6c1.86,0,3,1.22,3,3.2v6.4Z"/><path class="cls-5" d="M77.43,104.37v-5.5c0-1.12-.5-1.48-1.33-1.48a2.59,2.59,0,0,0-1.68.7v6.28H71.34V95.23l3.08-.38v1.52a4.25,4.25,0,0,1,3.13-1.6c1.86,0,3,1.22,3,3.2v6.4Z"/><path class="cls-5" d="M87.08,104.67a4.63,4.63,0,0,1-4.94-4.92,4.76,4.76,0,0,1,5.06-5,4.64,4.64,0,0,1,4.93,4.92A4.79,4.79,0,0,1,87.08,104.67Zm0-7.56c-1.26,0-1.92,1-1.92,2.62s.68,2.58,1.94,2.58,1.92-1,1.92-2.6S88.38,97.11,87.12,97.11Z"/><path class="cls-5" d="M99.9,104.37v-5.5c0-1.12-.5-1.48-1.32-1.48a2.59,2.59,0,0,0-1.68.7v6.28H93.82V95.23l3.08-.38v1.52a4.25,4.25,0,0,1,3.12-1.6c1.87,0,3,1.22,3,3.2v6.4Z"/><path class="cls-5" d="M33.75,114.53v9.84H30.57v-9.84h-4v-2.66H37.73v2.66Z"/><path class="cls-5" d="M40.74,124.37H37.66v-9.14l3.08-.38v1.36A2.51,2.51,0,0,1,43,114.77a3.37,3.37,0,0,1,1.54.38l-.62,2.72a2.61,2.61,0,0,0-1.16-.28,2.28,2.28,0,0,0-2,1.36Z"/><path class="cls-5" d="M50.65,123.25A3.31,3.31,0,0,1,48,124.67a2.69,2.69,0,0,1-2.85-2.58c0-1.76,1.32-3.18,5.51-3.3v-.18c0-1-.5-1.42-1.64-1.42a7.6,7.6,0,0,0-3.17.94l-.64-2.26a9.37,9.37,0,0,1,4.29-1.1c3.22,0,4.28,1.46,4.24,4.06l0,2.76c0,.64.12.7.76.76l-.3,2.2c-2,.26-3-.28-3.44-1.3Zm0-3c-1.91.22-2.6.58-2.6,1.4a1,1,0,0,0,1.16,1,1.9,1.9,0,0,0,1.44-.62Z"/><path class="cls-5" d="M60.41,124.67c-3.09,0-5-1.72-5-4.88s2-5,5.13-5a7.09,7.09,0,0,1,3.38.78l-.6,2.32a5.23,5.23,0,0,0-2.46-.72,2.26,2.26,0,0,0-2.31,2.54,2.29,2.29,0,0,0,2.39,2.58,4.6,4.6,0,0,0,2.46-.7l.46,2.34A6.9,6.9,0,0,1,60.41,124.67Z"/><path class="cls-5" d="M67.94,120.45c.1,1.24,1,2,2.47,2a6.3,6.3,0,0,0,3-.9l.3,2.38a8.34,8.34,0,0,1-3.62.76c-3.17,0-5.21-1.76-5.21-4.86a4.77,4.77,0,0,1,5-5c2.64,0,4.08,1.58,4.08,3.9a7,7,0,0,1-.2,1.64l-5.91.1Zm3.25-1.6v-.18c0-1.1-.46-1.78-1.42-1.78a1.94,1.94,0,0,0-1.81,2Z"/><path class="cls-5" d="M81.66,123.93l-.46,1.22c-1,2.73-2.12,3.55-4.08,3.55a6.27,6.27,0,0,1-2.76-.61l.92-2.34a3.48,3.48,0,0,0,1.44.42c.66,0,1-.24,1.32-1.14l.26-.72-3.64-9.24H78l2,6.12,1.8-6.12H85Z"/><path class="cls-2" d="M27.62,227.19l-1,.4,0-.52,1.62-.59v4.37h-.55Z"/><path class="cls-2" d="M32.67,230.71v1.79h-.54v-1.79H29.37l-.07-.39,2.89-3.87h.48v3.73h.86l0,.53Zm-.54-3.37L30,230.18h2.11Z"/><path class="cls-2" d="M36.33,231a2.24,2.24,0,1,1,2.17-2.24A2.12,2.12,0,0,1,36.33,231Zm0-4A1.71,1.71,0,1,0,38,228.72,1.61,1.61,0,0,0,36.33,227Z"/><path class="cls-2" d="M41.59,231a2.24,2.24,0,1,1,2.18-2.24A2.13,2.13,0,0,1,41.59,231Zm0-4a1.71,1.71,0,1,0,1.62,1.71A1.61,1.61,0,0,0,41.59,227Z"/><path class="cls-2" d="M47.1,230.85v-5.63h3.4v.53H47.67v2H50v.52H47.67v2H50.5v.54Z"/><path class="cls-2" d="M53.14,230.8l-.34.89c-.37,1-.77,1.3-1.33,1.3a1.89,1.89,0,0,1-.8-.19l.17-.51a1.43,1.43,0,0,0,.63.18c.32,0,.55-.18.85-1l.28-.73L51,226.72h.6l1.3,3.41,1.26-3.41h.59Z"/><path class="cls-2" d="M55.74,228.85a1.46,1.46,0,0,0,1.44,1.59,2.22,2.22,0,0,0,1.2-.34l.1.51a2.49,2.49,0,0,1-1.32.35,2,2,0,0,1-2-2.14,2,2,0,0,1,1.95-2.21,1.42,1.42,0,0,1,1.5,1.52,2.84,2.84,0,0,1-.09.66H55.74Zm2.32-.5a1,1,0,0,0,0-.18.94.94,0,0,0-1-1.06,1.34,1.34,0,0,0-1.31,1.25Z"/><path class="cls-2" d="M64.68,229.39c0-.66-.54-.92-1.42-1.18s-1.64-.58-1.64-1.58a1.63,1.63,0,0,1,1.8-1.53,3.09,3.09,0,0,1,1.7.49l-.21.5a2.69,2.69,0,0,0-1.48-.46c-.84,0-1.25.44-1.25,1s.56.85,1.42,1.12,1.63.62,1.63,1.63a1.71,1.71,0,0,1-1.9,1.62,3.36,3.36,0,0,1-1.81-.52l.21-.51a2.87,2.87,0,0,0,1.62.52C64.14,230.45,64.68,230,64.68,229.39Z"/><path class="cls-2" d="M67.46,231c-.79,0-1.14-.43-1.11-1.29l.06-2.44-.63,0,0-.35.62-.15,0-.93H67l0,1h1.38l0,.5H66.94l-.06,2.46c0,.52.17.78.6.78a2,2,0,0,0,.79-.2l.1.49A2.28,2.28,0,0,1,67.46,231Z"/><path class="cls-2" d="M69.6,228.85A1.46,1.46,0,0,0,71,230.44a2.22,2.22,0,0,0,1.2-.34l.1.51A2.49,2.49,0,0,1,71,231a2,2,0,0,1-2-2.14A2,2,0,0,1,71,226.61a1.42,1.42,0,0,1,1.51,1.52,2.84,2.84,0,0,1-.09.66H69.6Zm2.32-.5a1,1,0,0,0,0-.18.94.94,0,0,0-1-1.06,1.34,1.34,0,0,0-1.31,1.25Z"/><path class="cls-2" d="M73.89,228.85a1.46,1.46,0,0,0,1.44,1.59,2.22,2.22,0,0,0,1.2-.34l.11.51a2.53,2.53,0,0,1-1.33.35,2,2,0,0,1-2-2.14,2,2,0,0,1,2-2.21,1.41,1.41,0,0,1,1.5,1.52,2.39,2.39,0,0,1-.09.66H73.89Zm2.32-.5a1,1,0,0,0,0-.18.94.94,0,0,0-1-1.06,1.33,1.33,0,0,0-1.3,1.25Z"/><path class="cls-2" d="M79,231c-.78,0-1.13-.43-1.11-1.29l.07-2.44-.63,0,0-.35.62-.15,0-.93h.53l0,1H79.9l0,.5H78.51l-.07,2.46c0,.52.18.78.61.78a2,2,0,0,0,.79-.2l.1.49A2.33,2.33,0,0,1,79,231Z"/><path class="cls-2" d="M86.94,225.22h.56v5.68h-.62L83.66,226v4.82H83.1v-5.63h.65L86.94,230Z"/><path class="cls-2" d="M90.81,230.85h-.55l-1.6-5.63h.59L90.57,230,92,225.22h.68L94.14,230l1.26-4.81H96l-1.58,5.63h-.56l-1.51-5Z"/><path class="cls-2" d="M96.6,230a.68.68,0,0,1,.64.71,2.13,2.13,0,0,1-1.12,1.56l-.24-.24c.56-.41.79-.76.79-1.07s-.16-.37-.56-.52A.48.48,0,0,1,96.6,230Z"/><path class="cls-2" d="M103.12,229.39c0-.66-.54-.92-1.42-1.18s-1.64-.58-1.64-1.58a1.63,1.63,0,0,1,1.8-1.53,3,3,0,0,1,1.69.49l-.2.5a2.72,2.72,0,0,0-1.48-.46c-.85,0-1.25.44-1.25,1s.56.85,1.42,1.12,1.63.62,1.63,1.63a1.71,1.71,0,0,1-1.9,1.62,3.36,3.36,0,0,1-1.81-.52l.21-.51a2.87,2.87,0,0,0,1.62.52A1.19,1.19,0,0,0,103.12,229.39Z"/><path class="cls-2" d="M105.28,226.72v2.67c0,.72.29,1,.89,1a1.82,1.82,0,0,0,1.27-.58v-3.13H108v4.13l-.56.11v-.66A2.08,2.08,0,0,1,106,231a1.25,1.25,0,0,1-1.3-1.41v-2.83Z"/><path class="cls-2" d="M109.65,225.78a.38.38,0,0,1-.38-.42.38.38,0,1,1,.76,0A.38.38,0,0,1,109.65,225.78Zm-.28,5.07v-4.13l.56-.11v4.24Z"/><path class="cls-2" d="M112.44,231c-.79,0-1.14-.43-1.11-1.29l.06-2.44-.63,0,0-.35.62-.15,0-.93H112l0,1h1.38l0,.5h-1.37l-.06,2.46c0,.52.17.78.6.78a2.1,2.1,0,0,0,.8-.2l.1.49A2.36,2.36,0,0,1,112.44,231Z"/><path class="cls-2" d="M114.58,228.85a1.46,1.46,0,0,0,1.44,1.59,2.22,2.22,0,0,0,1.2-.34l.11.51A2.55,2.55,0,0,1,116,231a2,2,0,0,1-2-2.14,2,2,0,0,1,1.95-2.21,1.41,1.41,0,0,1,1.5,1.52,2.84,2.84,0,0,1-.09.66h-2.79Zm2.32-.5a1,1,0,0,0,0-.18.94.94,0,0,0-1-1.06,1.33,1.33,0,0,0-1.3,1.25Z"/><path class="cls-2" d="M120.47,230.85v-.52c1.49-1.12,2.43-1.76,2.43-2.48a.86.86,0,0,0-1-.85,2.2,2.2,0,0,0-1.28.52l-.2-.47a2.42,2.42,0,0,1,1.53-.57,1.33,1.33,0,0,1,1.48,1.3c0,1-1,1.62-2.22,2.53h2.43v.54Z"/><path class="cls-2" d="M125.76,228.88a1.71,1.71,0,0,1,1.88,1.71,1.89,1.89,0,0,1-2,1.92,3.14,3.14,0,0,1-1.45-.37l.11-.55a2.92,2.92,0,0,0,1.35.39,1.3,1.3,0,0,0,1.38-1.36,1.26,1.26,0,0,0-1.36-1.25,2.78,2.78,0,0,0-1.07.17l-.19-.18.36-2.77h2.67l0,.54h-2.24L125,229A2.89,2.89,0,0,1,125.76,228.88Z"/><path class="cls-2" d="M130.49,231a2.24,2.24,0,1,1,2.18-2.24A2.13,2.13,0,0,1,130.49,231Zm0-4a1.71,1.71,0,1,0,1.62,1.71A1.61,1.61,0,0,0,130.49,227Z"/><path class="cls-2" d="M28.68,242.85h-.54l-1.61-5.63h.6L28.44,242l1.43-4.81h.69L32,242l1.26-4.81h.57l-1.57,5.63h-.56l-1.51-5Z"/><path class="cls-2" d="M36.87,242.35a1.61,1.61,0,0,1-1.21.61,1.19,1.19,0,0,1-1.31-1.14c0-.75.59-1.36,2.51-1.47v-.24a.85.85,0,0,0-1-1,2.55,2.55,0,0,0-1.35.49l-.12-.52a2.92,2.92,0,0,1,1.53-.49,1.28,1.28,0,0,1,1.47,1.47v2c0,.3.06.43.42.42l0,.46c-.54,0-.83-.18-.9-.59Zm0-1.62c-1.42.16-1.92.48-1.92,1a.75.75,0,0,0,.85.72,1.51,1.51,0,0,0,1.07-.54Z"/><path class="cls-2" d="M39.72,243a2.57,2.57,0,0,1-1.35-.37l.15-.51a2.28,2.28,0,0,0,1.22.38c.49,0,.92-.24.92-.69s-.52-.64-1-.81-1.2-.45-1.2-1.17a1.24,1.24,0,0,1,1.4-1.18,2.81,2.81,0,0,1,1.25.3l-.16.51a2.5,2.5,0,0,0-1.13-.31c-.5,0-.83.23-.83.63s.49.61,1,.77,1.22.45,1.22,1.21A1.32,1.32,0,0,1,39.72,243Z"/><path class="cls-2" d="M45,242.85v-2.67c0-.72-.28-1-.88-1a1.88,1.88,0,0,0-1.28.58v3.13h-.56v-6.07l.56-.12v2.6a2.14,2.14,0,0,1,1.43-.65A1.23,1.23,0,0,1,45.54,240v2.83Z"/><path class="cls-2" d="M47.16,237.78a.38.38,0,0,1-.38-.42.38.38,0,1,1,.76,0A.38.38,0,0,1,47.16,237.78Zm-.28,5.07v-4.13l.56-.11v4.24Z"/><path class="cls-2" d="M51.54,242.85v-2.67c0-.72-.29-1-.91-1a1.85,1.85,0,0,0-1.25.58v3.13h-.56v-4.13l.56-.11v.67a2.13,2.13,0,0,1,1.4-.67A1.24,1.24,0,0,1,52.09,240v2.83Z"/><path class="cls-2" d="M53.18,242.2a1,1,0,0,1,.68-.79,1.43,1.43,0,0,1-.67-1.26,1.52,1.52,0,0,1,1.62-1.54,1.89,1.89,0,0,1,1,.24l1.15-.09,0,.56-.91-.09a1.42,1.42,0,0,1,.34.92,1.52,1.52,0,0,1-1.6,1.52,1.85,1.85,0,0,1-.62-.12c-.21.09-.46.26-.46.49s.2.43.94.43h.53c1.2,0,1.71.4,1.71,1.08,0,.91-1,1.53-2.17,1.53s-1.86-.49-1.86-1.21a1.09,1.09,0,0,1,.89-1A.73.73,0,0,1,53.18,242.2Zm.21,1.57c0,.49.53.85,1.4.85s1.55-.41,1.55-1-.43-.66-1.25-.66c-.28,0-.63,0-.86,0C53.73,243.1,53.39,243.42,53.39,243.77Zm1.41-2.55a1,1,0,0,0,1-1.08,1,1,0,0,0-1-1.08,1.08,1.08,0,0,0,0,2.16Z"/><path class="cls-2" d="M58.83,243c-.78,0-1.13-.43-1.1-1.29l.06-2.44-.63,0,0-.35.62-.15,0-.93h.54l0,1h1.38l0,.5H58.32l-.06,2.46c0,.52.17.78.6.78a2,2,0,0,0,.79-.2l.1.49A2.33,2.33,0,0,1,58.83,243Z"/><path class="cls-2" d="M62.4,243a2,2,0,0,1-2-2.17,2,2,0,0,1,2-2.18,2,2,0,0,1,2,2.17A2,2,0,0,1,62.4,243Zm0-3.85a1.69,1.69,0,1,0,1.45,1.68A1.49,1.49,0,0,0,62.42,239.11Z"/><path class="cls-2" d="M68.24,242.85v-2.67c0-.72-.29-1-.91-1a1.85,1.85,0,0,0-1.25.58v3.13h-.56v-4.13l.56-.11v.67a2.13,2.13,0,0,1,1.4-.67A1.25,1.25,0,0,1,68.8,240v2.83Z"/><path class="cls-2" d="M70.3,242a.68.68,0,0,1,.64.71,2.13,2.13,0,0,1-1.12,1.56l-.24-.24c.57-.41.79-.76.79-1.07s-.16-.37-.56-.52A.48.48,0,0,1,70.3,242Z"/><path class="cls-2" d="M75.55,242.85H74.06v-5.63h1.53a2.82,2.82,0,1,1,0,5.63Zm0-5.1h-.92v4.56h.93A2.14,2.14,0,0,0,78,240,2.17,2.17,0,0,0,75.56,237.75Z"/><path class="cls-2" d="M83.76,238.07a2.94,2.94,0,0,0-1.57-.44,2.42,2.42,0,0,0,0,4.81,2.74,2.74,0,0,0,1.57-.5l.11.56a3.18,3.18,0,0,1-1.69.46,2.65,2.65,0,0,1-2.72-2.91,2.7,2.7,0,0,1,2.72-3,3.54,3.54,0,0,1,1.74.46Z"/><path class="cls-2" d="M86.93,242.85v-.52c1.5-1.12,2.43-1.76,2.43-2.48a.86.86,0,0,0-.94-.85,2.17,2.17,0,0,0-1.28.52l-.2-.47a2.4,2.4,0,0,1,1.53-.57,1.34,1.34,0,0,1,1.48,1.3c0,1-1,1.62-2.23,2.53h2.43v.54Z"/><path class="cls-2" d="M93.12,243a2.24,2.24,0,1,1,2.18-2.24A2.13,2.13,0,0,1,93.12,243Zm0-4a1.71,1.71,0,1,0,1.62,1.71A1.61,1.61,0,0,0,93.12,239Z"/><path class="cls-2" d="M98.39,243a2.24,2.24,0,0,1,0-4.48,2.24,2.24,0,0,1,0,4.48Zm0-4a1.71,1.71,0,1,0,1.62,1.71A1.6,1.6,0,0,0,98.39,239Z"/><path class="cls-2" d="M103.65,243a2.24,2.24,0,1,1,2.18-2.24A2.13,2.13,0,0,1,103.65,243Zm0-4a1.71,1.71,0,1,0,1.62,1.71A1.61,1.61,0,0,0,103.65,239Z"/><path class="cls-2" d="M108,240.88a1.71,1.71,0,0,1,1.87,1.71,1.89,1.89,0,0,1-2,1.92,3.07,3.07,0,0,1-1.44-.37l.1-.55A2.92,2.92,0,0,0,108,244a1.3,1.3,0,0,0,1.38-1.36,1.26,1.26,0,0,0-1.36-1.25,2.78,2.78,0,0,0-1.07.17l-.19-.18.36-2.77h2.68l0,.54h-2.24l-.26,1.84A2.92,2.92,0,0,1,108,240.88Z"/></svg>