<svg id="Layer_1" data-name="Layer 1" xmlns="http://www.w3.org/2000/svg" viewBox="0 0 162 270"><defs><style>.cls-1{fill:#391089;}.cls-2{fill:#fff;}.cls-3{fill:#e43356;}</style></defs><rect class="cls-1" x="-54" y="54" width="270" height="162" transform="translate(216 54) rotate(90)"/><path class="cls-2" d="M54.69,237l-2.09,5.62h-.93L49.57,237l-.08,5.73h-.91l.23-6.88h1.24l2.11,5.66,2.11-5.66h1.22l.22,6.88h-1Z"/><path class="cls-2" d="M62.91,242.74H62l-.65-1.8h-3l-.65,1.8h-1l2.58-6.88h1.07Zm-3.09-5.91-1.19,3.26H61Z"/><path class="cls-2" d="M65,242.74H64.1v-6.88h2.06c1.66,0,2.53.8,2.53,2a2,2,0,0,1-1.55,2L69,242.74H67.88L66.21,240l-1.18.08Zm1.14-3.51c.9,0,1.58-.46,1.58-1.31s-.66-1.2-1.7-1.2H65v2.54Z"/><path class="cls-2" d="M70.38,242.74v-6.88h.92v6.88Z"/><path class="cls-2" d="M78.73,242.74h-1l-.65-1.8h-3l-.65,1.8h-1l2.59-6.88h1.07Zm-3.09-5.91-1.19,3.26h2.36Z"/><path class="cls-2" d="M84.61,235.86h.92v6.95h-1l-3.68-5.62v5.55h-.91v-6.88h1l3.66,5.55Z"/><path class="cls-2" d="M92.92,242.74H92l-.65-1.8h-3l-.65,1.8h-1l2.59-6.88h1.07Zm-3.09-5.91-1.19,3.26H91Z"/><path class="cls-2" d="M99.55,236.74v6h-.92v-6H96.22v-.88H102v.88Z"/><path class="cls-2" d="M103.3,242.74v-6.88h4.36v.87h-3.42v2.13h2.85v.86h-2.85v2.15h3.42v.87Z"/><path class="cls-2" d="M110.27,239.14l2.91-3.28h1.18l-3.18,3.4,3.21,3.48h-1.2l-2.92-3.27h0v3.27h-.93v-6.88h.93v3.28Z"/><path class="cls-3" d="M79,93a1.4,1.4,0,0,1,1.84.75,7.87,7.87,0,0,0,7.47,4.58,8.05,8.05,0,0,0,0-2.78A1.41,1.41,0,0,1,91,95a13.69,13.69,0,0,1-2,9.45,19.15,19.15,0,0,1-5.41,5.87,12.6,12.6,0,0,1,.06,5.33,23.36,23.36,0,0,0,4.92.24,8.18,8.18,0,0,0-.31-1.62A2.66,2.66,0,0,0,87,112.57a1.41,1.41,0,0,1,1.39-2.45,5.43,5.43,0,0,1,2.51,3.27,10.14,10.14,0,0,1,.42,2.14c.67-.12,1.32-.26,2-.43a12.66,12.66,0,0,1,6.14-16.4,1.41,1.41,0,0,1,1.21,2.54,9.55,9.55,0,0,0-4.11,3.67,6.56,6.56,0,0,0,7.62-1.56,1.4,1.4,0,1,1,2,1.94,9.34,9.34,0,0,1-10.74,2.21,10.3,10.3,0,0,0,.53,6.72,17.43,17.43,0,0,0,5.16-3.14,1.4,1.4,0,0,1,2,.09,1.42,1.42,0,0,1-.09,2,18.26,18.26,0,0,1-2.89,2.12,9.39,9.39,0,0,0,4.45,1.15,11.16,11.16,0,0,0,6.86-2,1.4,1.4,0,0,1,1.68,2.25,14,14,0,0,1-8.63,2.53,11.31,11.31,0,0,1-7.18-2.54,25,25,0,0,1-5.81,1.65,22.28,22.28,0,0,0,.19,2.3,4,4,0,0,0,.82,2.11,1.4,1.4,0,0,1-2.06,1.91,6.61,6.61,0,0,1-1.54-3.59,24.11,24.11,0,0,1-.21-2.43,26.37,26.37,0,0,1-5.86-.32q-.23.58-.48,1.14a22.5,22.5,0,0,1-2.73,4.47c.86,1,1.84,2.16,2.28,2.81a1.41,1.41,0,0,1-2.34,1.57,28.73,28.73,0,0,0-1.81-2.24c-.57.58-1.17,1.13-1.79,1.65q.63.57,1.29,1.11c3.85,3.09,5.68,7.37,5.74,12.68a40.9,40.9,0,0,1-2.63,13.6,7.12,7.12,0,0,0,4.88.23h0c-1.71-5.61-.95-10.54,1.44-14.36a9.37,9.37,0,0,1-2.55-3.77,15.29,15.29,0,0,1-.55-5.88,1.41,1.41,0,0,1,2.81.16,21.37,21.37,0,0,0,0,2.65,10.26,10.26,0,0,0,4.86-2.74,9.75,9.75,0,0,1-2.72-1.11,13.36,13.36,0,0,1-4.89-5.61,1.4,1.4,0,1,1,2.5-1.28A10.6,10.6,0,0,0,90,127.86a7.06,7.06,0,0,0,2.82,1,6,6,0,0,0,.28-1.8A1.41,1.41,0,1,1,96,127a9.8,9.8,0,0,1-.15,1.64,13.66,13.66,0,0,0,1.7-.43v-.08a12.82,12.82,0,0,0,.27-3.6,2.85,2.85,0,0,0-1.7-2.29,1.41,1.41,0,0,1,1.32-2.49,5.67,5.67,0,0,1,3.17,4.39,10.86,10.86,0,0,1,0,2.79,34.65,34.65,0,0,0,4.16-2.52,1.41,1.41,0,0,1,1.61,2.31c-.54.38-1.11.76-1.69,1.12a4.21,4.21,0,0,0,1.25,1.35,4.71,4.71,0,0,0,2.34.76c.23,0,.47,0,.72,0a10.22,10.22,0,0,1,0-4.7,7.93,7.93,0,0,1,4.29-5.38,1.39,1.39,0,0,1,1.87.65,1.4,1.4,0,0,1-.65,1.88,5.16,5.16,0,0,0-2.78,3.53,7.34,7.34,0,0,0,0,3.55,15.83,15.83,0,0,0,2-.76,1.4,1.4,0,1,1,1.19,2.54,14.29,14.29,0,0,1-6.92,1.47,7.54,7.54,0,0,1-3.7-1.23,6.87,6.87,0,0,1-2.1-2.27c-.7.37-1.41.7-2.13,1a6.43,6.43,0,0,0,.07,2.22,3.26,3.26,0,0,0,2.26,2.21,1.42,1.42,0,0,1,.77,1.84,1.4,1.4,0,0,1-1.83.77,6,6,0,0,1-3.92-4.12,7.19,7.19,0,0,1-.22-2,13.87,13.87,0,0,1-2.53.4,12.42,12.42,0,0,1-7.54,5.21,6.7,6.7,0,0,0,1.37,1.84,16.79,16.79,0,0,1,2.09-1.94A1.41,1.41,0,1,1,92.3,139a13.49,13.49,0,0,0-3.49,4,8.16,8.16,0,0,0,4.55,1.59c-.22-2.51,1-5.26,3.55-7.5a1.41,1.41,0,0,1,1.86,2.11c-2,1.81-2.72,3.65-2.6,5.11.26-.07.51-.14.76-.23a1.4,1.4,0,0,1,1.79.85,1.41,1.41,0,0,1-.85,1.8l-.3.1a6,6,0,0,0,3.39,1.08,11.11,11.11,0,0,1,3-8.53,10.88,10.88,0,0,1,8.82-2.93,1.41,1.41,0,1,1-.25,2.8,8.06,8.06,0,0,0-6.57,2.11,8.34,8.34,0,0,0-2.17,6.31,17.65,17.65,0,0,0,2.52-.73,1.41,1.41,0,0,1,1,2.64,18.4,18.4,0,0,1-4.53,1.08h-.22c-3.54.3-6.36-.78-7.94-2.92l-.25-.35a11.28,11.28,0,0,1-6.6-1.74,15.11,15.11,0,0,0,.05,7.9A9.86,9.86,0,0,0,89,152l.08-.12a15.78,15.78,0,0,0,.85-1.65,1.41,1.41,0,0,1,2.56,1.17c-.15.33-.3.64-.46.95a7.7,7.7,0,0,0,2.79,1.42,6.89,6.89,0,0,0,4.42-.44,1.41,1.41,0,1,1,1.08,2.6,9.69,9.69,0,0,1-6.18.56,10.19,10.19,0,0,1-3.61-1.75A9.54,9.54,0,0,1,86.25,158a10,10,0,0,1-6.82-.23c-.32.84-.67,1.7-1,2.57a1.41,1.41,0,0,1-2.6-1.09c3-7.15,4.48-13,4.42-17.69,0-.39,0-.77,0-1.14a11,11,0,0,1-2.34.12,3.94,3.94,0,0,1-.5,1.2,5.14,5.14,0,0,1-2.41,2,1.41,1.41,0,1,1-1.12-2.58,2.36,2.36,0,0,0,1.14-.87,1.69,1.69,0,0,0,.13-.27,14.22,14.22,0,0,1-3.27-1.61,16,16,0,0,1-2.65,4A17.83,17.83,0,0,1,71,146a7.38,7.38,0,0,1,1,0,5.79,5.79,0,0,1,5.47,4.25,1.41,1.41,0,1,1-2.67.89A3,3,0,0,0,72,148.71h-.24a9.77,9.77,0,0,1-3.12,9.44,1.4,1.4,0,0,1-2-.15,1.42,1.42,0,0,1,.16-2A6.91,6.91,0,0,0,69,149.48a22.6,22.6,0,0,0-5.46,4,1.41,1.41,0,0,1-1.91-2.07,24.2,24.2,0,0,1,6.65-4.64,14.39,14.39,0,0,0-1.23-2.45,18.45,18.45,0,0,1-5.91,3,1.4,1.4,0,0,1-.81-2.69,15.67,15.67,0,0,0,5-2.55,8.68,8.68,0,0,0-2.55-1.94A1.41,1.41,0,0,1,64,137.53a11.52,11.52,0,0,1,3.41,2.56,13.22,13.22,0,0,0,2.11-3.41c-.36-.28-.71-.57-1-.84l0,0a19.42,19.42,0,0,0-4.31-3,3.9,3.9,0,0,0-3-.13,10.13,10.13,0,0,1-4.9,9,9.85,9.85,0,0,1,.41,5.83,1.4,1.4,0,1,1-2.72-.69,7,7,0,0,0-.23-3.88c-.41.15-.83.29-1.27.41a1.41,1.41,0,1,1-.76-2.71,12.37,12.37,0,0,0,2.11-.8l0,0,0,0a7.49,7.49,0,0,0,4.47-6.95,10.23,10.23,0,0,0-4.21-.56,7.89,7.89,0,0,0,.71,3.37A1.41,1.41,0,0,1,52.3,137a10,10,0,0,1-1-4,8.19,8.19,0,0,0-1.51.87,1.41,1.41,0,0,1-1.65-2.28,12,12,0,0,1,11.4-1.28,6.58,6.58,0,0,1,4.67-.42,8.21,8.21,0,0,0-.58-3.17c-.11-.27-.23-.54-.36-.79a15,15,0,0,1-15.38-.41,1.41,1.41,0,1,1,1.47-2.4,12.71,12.71,0,0,0,2.78,1.29c-.13-3.06-.92-5.13-2.82-6.89a1.4,1.4,0,0,1,1.91-2.06,11,11,0,0,1,2.27,2.88,12.26,12.26,0,0,1,5-1.1,1.41,1.41,0,1,1,0,2.81,9.56,9.56,0,0,0-3.9.93,17.52,17.52,0,0,1,.47,4,11.71,11.71,0,0,0,6.42-1.24,4.08,4.08,0,0,0-.44-.28,1.39,1.39,0,0,1-.58-1.9,1.41,1.41,0,0,1,1.9-.58,9,9,0,0,1,4,4.68,10.81,10.81,0,0,1,.68,5.47A32.81,32.81,0,0,1,70,133.48l.18.15c3,2.46,5.78,4.6,9.56,4a11.93,11.93,0,0,0-4.22-6.6c-.63-.51-1.25-1.05-1.83-1.61a19.22,19.22,0,0,1-2.26,1.23,1.41,1.41,0,0,1-1.16-2.56q.73-.34,1.47-.78a16.27,16.27,0,0,1-1.91-2.92,11.4,11.4,0,0,1-.9-2.42,5,5,0,0,1-3-1.92,5.8,5.8,0,0,1-1.15-4.44,1.41,1.41,0,1,1,2.78.46,3,3,0,0,0,.6,2.27,2.64,2.64,0,0,0,.56.55,8.39,8.39,0,0,1,.78-2.66A1.4,1.4,0,1,1,72,117.45a6.23,6.23,0,0,0,.32,5.69,13.8,13.8,0,0,0,1.7,2.55,21.28,21.28,0,0,0,5.77-7.38A11.92,11.92,0,0,0,81,111.76a14.32,14.32,0,0,1-2.77.93,9.53,9.53,0,0,1,.24,3.16,7.59,7.59,0,0,1-1.41,3.91,1.41,1.41,0,0,1-2.2-1.76,4.86,4.86,0,0,0,.81-2.41,6.38,6.38,0,0,0-.28-2.6,12.25,12.25,0,0,1-4.65-1,14.34,14.34,0,0,1-2.35-1.29c-4.24,3.07-10.26,4-16.51,2.63a1.41,1.41,0,0,1-1.08-1.67,1.42,1.42,0,0,1,1.68-1.08,24.39,24.39,0,0,0,4.22.54,5.58,5.58,0,0,0-.15-1.91A3,3,0,0,0,55,107.44,1.4,1.4,0,1,1,56.45,105a5.77,5.77,0,0,1,2.8,3.41,7.91,7.91,0,0,1,.28,2.62,15.34,15.34,0,0,0,6.6-2.17,27.34,27.34,0,0,1-5.36-7.72,1.42,1.42,0,0,1,.65-1.89,1.4,1.4,0,0,1,1.88.65,24.05,24.05,0,0,0,5,7.16c2.44-2.56,3.66-6.36,2.73-11.35a1.41,1.41,0,0,1,2.77-.52,19.33,19.33,0,0,1,.26,5.51,3.26,3.26,0,0,0,3-.92,1.42,1.42,0,0,1,2-.1,1.4,1.4,0,0,1,.11,2,6.14,6.14,0,0,1-5.61,1.81,13.55,13.55,0,0,1-3,5.3,11.63,11.63,0,0,0,1.27.64,9.76,9.76,0,0,0,8.29-.36,8.94,8.94,0,0,0-1.75-2.26,1.4,1.4,0,0,1,1.92-2,11.82,11.82,0,0,1,2.23,2.82,16.37,16.37,0,0,0,4-4.59,14.53,14.53,0,0,0,1-1.89,10.54,10.54,0,0,1-9.26-6.27A1.4,1.4,0,0,1,79,93Z"/></svg>